<?xml version="1.0" encoding="UTF-8"?>
<svg id="Layer_1" xmlns="http://www.w3.org/2000/svg" version="1.1" viewBox="0 0 1920 900">
  <!-- Generator: Adobe Illustrator 29.4.0, SVG Export Plug-In . SVG Version: 2.1.0 Build 152)  -->
  <defs>
    <style>
      .st0 {
        fill: #000647;
      }
    </style>
  </defs>
  <g>
    <path class="st0" d="M1212,452.2c.3,0,.6,0,.8.3.2.2.3.5.3.8v1.6h1.6c.3,0,.6,0,.8.3.2.2.3.5.3.8v14.7c0,.3,0,.6-.3.8s-.5.3-.8.3h-1.6v1.6c0,.3,0,.6-.3.8s-.5.3-.8.3h-7.2c-.3,0-.6,0-.8-.3-.2-.2-.3-.5-.3-.8v-1.6h-1.6c-.3,0-.6,0-.8-.3-.2-.2-.3-.5-.3-.8v-14.7c0-.3,0-.6.3-.8.2-.2.5-.3.8-.3h1.6v-1.6c0-.3,0-.6.3-.8s.5-.3.8-.3h7.2ZM1213.1,471.7v-16.8h-9.3v16.8h9.3Z"/>
    <path class="st0" d="M1228.3,454.8h1.6c.3,0,.6,0,.8.3.2.2.3.5.3.8v15.8h5.8v2.7h-4.8c-.3,0-.6,0-.8-.3-.2-.2-.3-.5-.3-.8v-1.6h-2.6v1.6c0,.3,0,.6-.3.8s-.5.3-.8.3h-4.8v-2.7h5.8v-16.8h-5.8v-2.7h4.8c.3,0,.6,0,.8.3.2.2.3.5.3.8v1.6Z"/>
    <path class="st0" d="M1254.4,452.2c.3,0,.6,0,.8.3.2.2.3.5.3.8v1.6h1.6c.3,0,.6,0,.8.3.2.2.3.5.3.8v14.7c0,.3,0,.6-.3.8-.2.2-.5.3-.8.3h-1.6v1.6c0,.3,0,.6-.3.8s-.5.3-.8.3h-7.2c-.3,0-.6,0-.8-.3-.2-.2-.3-.5-.3-.8v-1.6h-1.6c-.3,0-.6,0-.8-.3-.2-.2-.3-.5-.3-.8v-14.7c0-.3,0-.6.3-.8.2-.2.5-.3.8-.3h1.6v-1.6c0-.3,0-.6.3-.8s.5-.3.8-.3h7.2ZM1255.5,471.7v-16.8h-9.3v16.8h9.3Z"/>
    <path class="st0" d="M1270.7,454.8h1.6c.3,0,.6,0,.8.3.2.2.3.5.3.8v15.8h5.8v2.7h-4.8c-.3,0-.6,0-.8-.3-.2-.2-.3-.5-.3-.8v-1.6h-2.6v1.6c0,.3,0,.6-.3.8s-.5.3-.8.3h-4.8v-2.7h5.8v-16.8h-5.8v-2.7h4.8c.3,0,.6,0,.8.3.2.2.3.5.3.8v1.6Z"/>
    <path class="st0" d="M1291.2,454.8h1.6c.3,0,.6,0,.8.3.2.2.3.5.3.8v15.8h5.8v2.7h-4.8c-.3,0-.6,0-.8-.3-.2-.2-.3-.5-.3-.8v-1.6h-2.6v1.6c0,.3,0,.6-.3.8-.2.2-.5.3-.8.3h-4.8v-2.7h5.8v-16.8h-5.8v-2.7h4.8c.3,0,.6,0,.8.3.2.2.3.5.3.8v1.6Z"/>
    <path class="st0" d="M1317.3,452.2c.3,0,.6,0,.8.3.2.2.3.5.3.8v1.6h1.6c.3,0,.6,0,.8.3.2.2.3.5.3.8v14.7c0,.3,0,.6-.3.8s-.5.3-.8.3h-1.6v1.6c0,.3,0,.6-.3.8-.2.2-.5.3-.8.3h-7.2c-.3,0-.6,0-.8-.3-.2-.2-.3-.5-.3-.8v-1.6h-1.6c-.3,0-.6,0-.8-.3-.2-.2-.3-.5-.3-.8v-14.7c0-.3,0-.6.3-.8.2-.2.5-.3.8-.3h1.6v-1.6c0-.3,0-.6.3-.8s.5-.3.8-.3h7.2ZM1318.3,471.7v-16.8h-9.3v16.8h9.3Z"/>
    <path class="st0" d="M1339.3,452.2c.3,0,.6,0,.8.3.2.2.3.5.3.8v1.6h1.6c.3,0,.6,0,.8.3.2.2.3.5.3.8v14.7c0,.3,0,.6-.3.8-.2.2-.5.3-.8.3h-1.6v1.6c0,.3,0,.6-.3.8-.2.2-.5.3-.8.3h-7.2c-.3,0-.6,0-.8-.3-.2-.2-.3-.5-.3-.8v-1.6h-1.6c-.3,0-.6,0-.8-.3-.2-.2-.3-.5-.3-.8v-14.7c0-.3,0-.6.3-.8s.5-.3.8-.3h1.6v-1.6c0-.3,0-.6.3-.8.2-.2.5-.3.8-.3h7.2ZM1340.3,471.7v-16.8h-9.3v16.8h9.3Z"/>
    <path class="st0" d="M1361.3,452.2c.3,0,.6,0,.8.3.2.2.3.5.3.8v1.6h1.6c.3,0,.6,0,.8.3.2.2.3.5.3.8v14.7c0,.3,0,.6-.3.8s-.5.3-.8.3h-1.6v1.6c0,.3,0,.6-.3.8-.2.2-.5.3-.8.3h-7.2c-.3,0-.6,0-.8-.3-.2-.2-.3-.5-.3-.8v-1.6h-1.6c-.3,0-.6,0-.8-.3-.2-.2-.3-.5-.3-.8v-14.7c0-.3,0-.6.3-.8.2-.2.5-.3.8-.3h1.6v-1.6c0-.3,0-.6.3-.8s.5-.3.8-.3h7.2ZM1362.3,471.7v-16.8h-9.3v16.8h9.3Z"/>
    <path class="st0" d="M1377.6,454.8h1.6c.3,0,.6,0,.8.3.2.2.3.5.3.8v15.8h5.8v2.7h-4.8c-.3,0-.6,0-.8-.3-.2-.2-.3-.5-.3-.8v-1.6h-2.6v1.6c0,.3,0,.6-.3.8-.2.2-.5.3-.8.3h-4.8v-2.7h5.8v-16.8h-5.8v-2.7h4.8c.3,0,.6,0,.8.3.2.2.3.5.3.8v1.6Z"/>
    <path class="st0" d="M1403.7,452.2c.3,0,.6,0,.8.3.2.2.3.5.3.8v1.6h1.6c.3,0,.6,0,.8.3.2.2.3.5.3.8v14.7c0,.3,0,.6-.3.8s-.5.3-.8.3h-1.6v1.6c0,.3,0,.6-.3.8s-.5.3-.8.3h-7.2c-.3,0-.6,0-.8-.3-.2-.2-.3-.5-.3-.8v-1.6h-1.6c-.3,0-.6,0-.8-.3-.2-.2-.3-.5-.3-.8v-14.7c0-.3,0-.6.3-.8.2-.2.5-.3.8-.3h1.6v-1.6c0-.3,0-.6.3-.8.2-.2.5-.3.8-.3h7.2ZM1404.7,471.7v-16.8h-9.3v16.8h9.3Z"/>
    <path class="st0" d="M1420,454.8h1.6c.3,0,.6,0,.8.3.2.2.3.5.3.8v15.8h5.8v2.7h-4.8c-.3,0-.6,0-.8-.3-.2-.2-.3-.5-.3-.8v-1.6h-2.6v1.6c0,.3,0,.6-.3.8s-.5.3-.8.3h-4.8v-2.7h5.8v-16.8h-5.8v-2.7h4.8c.3,0,.6,0,.8.3.2.2.3.5.3.8v1.6Z"/>
    <path class="st0" d="M1440.4,454.8h1.6c.3,0,.6,0,.8.3.2.2.3.5.3.8v15.8h5.8v2.7h-4.8c-.3,0-.6,0-.8-.3-.2-.2-.3-.5-.3-.8v-1.6h-2.6v1.6c0,.3,0,.6-.3.8s-.5.3-.8.3h-4.8v-2.7h5.8v-16.8h-5.8v-2.7h4.8c.3,0,.6,0,.8.3.2.2.3.5.3.8v1.6Z"/>
    <path class="st0" d="M1466.6,452.2c.3,0,.6,0,.8.3.2.2.3.5.3.8v1.6h1.6c.3,0,.6,0,.8.3.2.2.3.5.3.8v14.7c0,.3,0,.6-.3.8-.2.2-.5.3-.8.3h-1.6v1.6c0,.3,0,.6-.3.8s-.5.3-.8.3h-7.2c-.3,0-.6,0-.8-.3-.2-.2-.3-.5-.3-.8v-1.6h-1.6c-.3,0-.6,0-.8-.3-.2-.2-.3-.5-.3-.8v-14.7c0-.3,0-.6.3-.8s.5-.3.8-.3h1.6v-1.6c0-.3,0-.6.3-.8s.5-.3.8-.3h7.2ZM1467.6,471.7v-16.8h-9.3v16.8h9.3Z"/>
    <path class="st0" d="M1488.5,452.2c.3,0,.6,0,.8.3.2.2.3.5.3.8v1.6h1.6c.3,0,.6,0,.8.3.2.2.3.5.3.8v14.7c0,.3,0,.6-.3.8s-.5.3-.8.3h-1.6v1.6c0,.3,0,.6-.3.8-.2.2-.5.3-.8.3h-7.2c-.3,0-.6,0-.8-.3-.2-.2-.3-.5-.3-.8v-1.6h-1.6c-.3,0-.6,0-.8-.3-.2-.2-.3-.5-.3-.8v-14.7c0-.3,0-.6.3-.8s.5-.3.8-.3h1.6v-1.6c0-.3,0-.6.3-.8.2-.2.5-.3.8-.3h7.2ZM1489.6,471.7v-16.8h-9.3v16.8h9.3Z"/>
    <path class="st0" d="M1510.5,452.2c.3,0,.6,0,.8.3.2.2.3.5.3.8v1.6h1.6c.3,0,.6,0,.8.3.2.2.3.5.3.8v14.7c0,.3,0,.6-.3.8s-.5.3-.8.3h-1.6v1.6c0,.3,0,.6-.3.8s-.5.3-.8.3h-7.2c-.3,0-.6,0-.8-.3-.2-.2-.3-.5-.3-.8v-1.6h-1.6c-.3,0-.6,0-.8-.3-.2-.2-.3-.5-.3-.8v-14.7c0-.3,0-.6.3-.8s.5-.3.8-.3h1.6v-1.6c0-.3,0-.6.3-.8s.5-.3.8-.3h7.2ZM1511.6,471.7v-16.8h-9.3v16.8h9.3Z"/>
    <path class="st0" d="M1526.8,454.8h1.6c.3,0,.6,0,.8.3.2.2.3.5.3.8v15.8h5.8v2.7h-4.8c-.3,0-.6,0-.8-.3-.2-.2-.3-.5-.3-.8v-1.6h-2.6v1.6c0,.3,0,.6-.3.8s-.5.3-.8.3h-4.8v-2.7h5.8v-16.8h-5.8v-2.7h4.8c.3,0,.6,0,.8.3.2.2.3.5.3.8v1.6Z"/>
    <path class="st0" d="M1547.3,454.8h1.6c.3,0,.6,0,.8.3.2.2.3.5.3.8v15.8h5.8v2.7h-4.8c-.3,0-.6,0-.8-.3-.2-.2-.3-.5-.3-.8v-1.6h-2.6v1.6c0,.3,0,.6-.3.8-.2.2-.5.3-.8.3h-4.8v-2.7h5.8v-16.8h-5.8v-2.7h4.8c.3,0,.6,0,.8.3.2.2.3.5.3.8v1.6Z"/>
    <path class="st0" d="M1573.4,452.2c.3,0,.6,0,.8.3.2.2.3.5.3.8v1.6h1.6c.3,0,.6,0,.8.3.2.2.3.5.3.8v14.7c0,.3,0,.6-.3.8-.2.2-.5.3-.8.3h-1.6v1.6c0,.3,0,.6-.3.8s-.5.3-.8.3h-7.2c-.3,0-.6,0-.8-.3-.2-.2-.3-.5-.3-.8v-1.6h-1.6c-.3,0-.6,0-.8-.3-.2-.2-.3-.5-.3-.8v-14.7c0-.3,0-.6.3-.8s.5-.3.8-.3h1.6v-1.6c0-.3,0-.6.3-.8s.5-.3.8-.3h7.2ZM1574.5,471.7v-16.8h-9.3v16.8h9.3Z"/>
    <path class="st0" d="M1595.4,452.2c.3,0,.6,0,.8.3.2.2.3.5.3.8v1.6h1.6c.3,0,.6,0,.8.3.2.2.3.5.3.8v14.7c0,.3,0,.6-.3.8s-.5.3-.8.3h-1.6v1.6c0,.3,0,.6-.3.8s-.5.3-.8.3h-7.2c-.3,0-.6,0-.8-.3-.2-.2-.3-.5-.3-.8v-1.6h-1.6c-.3,0-.6,0-.8-.3-.2-.2-.3-.5-.3-.8v-14.7c0-.3,0-.6.3-.8s.5-.3.8-.3h1.6v-1.6c0-.3,0-.6.3-.8.2-.2.5-.3.8-.3h7.2ZM1596.4,471.7v-16.8h-9.3v16.8h9.3Z"/>
    <path class="st0" d="M1611.7,454.8h1.6c.3,0,.6,0,.8.3.2.2.3.5.3.8v15.8h5.8v2.7h-4.8c-.3,0-.6,0-.8-.3-.2-.2-.3-.5-.3-.8v-1.6h-2.6v1.6c0,.3,0,.6-.3.8-.2.2-.5.3-.8.3h-4.8v-2.7h5.8v-16.8h-5.8v-2.7h4.8c.3,0,.6,0,.8.3.2.2.3.5.3.8v1.6Z"/>
  </g>
  <g>
    <path class="st0" d="M484.2,547.9v177.2h-46.9v-77.1h-72.7v77.1h-46.9v-177.2h46.9v67h72.7v-67h46.9Z"/>
    <path class="st0" d="M610.8,653.7v71.4h-46.9v-70.6l-65.4-106.6h49.2l39.6,72.4,40.1-72.4h48.7l-65.4,105.8Z"/>
    <path class="st0" d="M819.5,561.9c11.6,9.4,17.5,24.2,17.5,44.6s-5.8,35.2-17.5,44.6c-11.6,9.4-30.1,14.1-55.5,14.1h-26.6v59.9h-46.9v-177.2h73.5c25.4,0,43.9,4.7,55.5,14.1ZM784,626.2c4-4.1,6-10.6,6-19.7s-2-15.8-6-19.9c-4-4.1-10.7-6.1-20.1-6.1h-26.6v52.1h26.6c9.4-.2,16.1-2.3,20.1-6.4Z"/>
    <path class="st0" d="M977.9,692.5v32.6h-120.1v-177.2h114.9v32.6h-68v34.7h57.6v32.6h-57.6v44.8h73.2Z"/>
    <path class="st0" d="M1075.8,659.9h-25v65.1h-46.9v-177.2h70.9c25.4,0,43.9,4.3,55.5,12.9,11.6,8.6,17.5,22.1,17.5,40.5s-8.8,40-26.3,48.2l49.8,75.6h-54.2l-41.2-65.1ZM1050.8,627.3h24c9.2,0,15.8-1.9,19.9-5.7,4.1-3.8,6.1-9.7,6.1-17.7s-2-14.3-6-18c-4-3.6-10.7-5.5-20.1-5.5h-24v46.9Z"/>
    <g>
      <path class="st0" d="M1176.4,713.3l8.3-21.1c15.8,9.6,33.3,14.3,52.6,14.3s20.6-2.5,28-7.6c7.4-5,11.1-12.1,11.1-21.1s-1.8-10.2-5.3-14.1c-3.6-3.8-8-7-13.3-9.5-5.3-2.5-12.5-5.4-21.5-8.7-11.3-4-20.5-7.8-27.6-11.3-7.1-3.6-13.2-8.6-18.2-15-5-6.4-7.6-14.5-7.6-24.2,0-16.2,5.8-28.6,17.5-37.4,11.6-8.8,26.8-13.2,45.6-13.2s38.3,5.1,53.9,15.4l-8.6,20.8c-14.6-9.2-29.4-13.8-44.6-13.8s-18.6,2.3-25,6.8c-6.4,4.5-9.6,11.1-9.6,19.8s1.7,9.6,5.1,13.3c3.4,3.6,7.7,6.7,12.9,9.1,5.2,2.4,12.3,5.3,21.4,8.6,11.6,4.3,21,8.3,28.1,12,7.1,3.6,13.2,8.7,18.4,15.2,5.1,6.5,7.7,14.7,7.7,24.6,0,16.3-6.1,29.2-18.4,38.6-12.2,9.4-28.9,14.1-49.9,14.1s-44.5-5.2-61-15.6Z"/>
      <path class="st0" d="M1447.6,703.4v21.6h-111.5v-177.2h106.3v21.6h-76.6v51.1h66.2v21.6h-66.2v61.2h81.8Z"/>
      <path class="st0" d="M1506.5,716c-13.7-8.4-24-19.7-30.9-33.7-6.9-14.1-10.3-29.4-10.3-46.1s3.6-31.7,10.7-45.7c7.1-14,17.8-25.1,32.2-33.5,14.3-8.3,31.7-12.5,52-12.5s21.7,1.7,31.7,5.1c10,3.4,18.5,8,25.4,13.9l-9.6,20.3c-5.6-5-12.5-9.1-20.8-12.2-8.3-3.1-17.2-4.7-26.6-4.7-13.7,0-25.5,3-35.3,9.1-9.8,6.1-17.2,14.4-22.3,24.9-5,10.5-7.6,22.4-7.6,35.6s2.4,25.4,7.2,36c4.8,10.6,11.8,18.9,21.1,25,9.3,6.1,20.5,9.1,33.7,9.1,20.1,0,37.9-7,53.4-21.1l8.9,19.8c-7.8,6.9-17,12.6-27.6,16.9-10.6,4.3-22.1,6.5-34.6,6.5-20,0-36.8-4.2-50.5-12.6Z"/>
    </g>
    <polygon class="st0" points="597 602.8 587.3 620.3 547.7 547.9 602.8 648.5 597 602.8"/>
  </g>
  <g>
    <path class="st0" d="M1021,405.4c-.1.2-.2.4-.3.6.1-.2.3-.4.4-.7,0,0,0,0,0,0Z"/>
    <path class="st0" d="M1185.5,462.1c-6.6-8.7-9.4-22.3-12.8-30.3-3.4-8,2-12.7,7.3-18.8,5.3-6.1,5.4-15.3,4.2-20.6-1.1-5.3-7.2-16.3-13.3-30-6.1-13.6-25.9-17.2-30.8-22.9-4.9-5.7-19.6-17.3-26.9-22-10.4-6.7-15.8-21.7-39-32.7-25-11.8-48.5-7.3-72.8-10-13.9-1.5-31.5-3.2-43.9-4.3-11.2-1-22.4-3.2-33.2-6.4-13.7-4.1-31.3-8.1-44.6-2-23.3,10.7-45.6,14.1-63.1,10-41-7.3-60.2-63.7-24.3-96.1,0,0-22.3-.5-30.9,23.6-5.1,14.2-5.1,29.4-1,43.2,8.3,27.6,33.6,46.8,62.4,47.8h.2c-8.5,9.5-13.6,29-25.1,62.7-10.9,32.1-15.5,25.6-24.1,37.4-3.4,3.8-5.7,9.6-5.7,9.6-.3.7-.7,1.4-1.1,2.2-3.4,7.2-16.6,58.5-16.6,58.5,0,0-1.3,2.6,3.4,5,3.1,1.7,5,2.9,5.6,4.7.4,1.1,1.4,2,2.6,2h26.2c.5-9-20-12.8-20-12.8,0,0,20.9-60.5,31.5-64.4,9.7-3.6,35.4-25.1,48.5-36.4,6.8,13.5,17.8,26.8,23.6,33.4,2.5,2.9,4.1,6.5,4.6,10.3l3.7,31.1c1,3.7,2.9,8.7,9.2,12.2,9.7,7.4,23.6,15.4,23.6,15.4,0,0-1,3.2,4,4.9,3.9,1.3,4.4,3.1,5,5,.3,1.1,1.4,1.9,2.6,1.9h28.5c.5-9-22.3-12.8-22.3-12.8,0,0-10.6-12-20.1-24.6-5.4-8-11.4-19.6-2-42,4.5-10.7,4.9-20.8,3.2-29.8h.2c0,.2,0,.2.1.3-.9-5.9-2.9-12.2-7.2-17.2,0,0,9.2,6.4,12.9,23.4,18.1,19,43.1,36.4,67.8,35.3-5.6,24.5-1.3,32-1.3,32l13.4,24.1c-.1.3-.9,2.7,3.4,5,3.1,1.7,5,2.9,5.6,4.8.4,1.1,1.4,1.9,2.6,1.9h26.4c.5-9-20.2-12.8-20.2-12.8,0,0-1.3-.4-3.1-.9l-6.8-24.1v-.5c.3-.4,3.9-11.1,12.2-24.2,0,0,1.4-2.7,2.8-4.9,0-.2.2-.4.3-.6,0,0,0,0,0,0,2.9-4.9,7.2-13.1,8.6-20,0,0-7.5,11.4-10.8,20.2,7.4-.3,20.1-.9,20.1-.9l1.1,6.1c1,13.6,5.8,22.8,7.6,26.1,2,3.5,8.9,15.5,14.7,24.8,0,.1-.1.2-.2.3,0,0-1.1,2.6,2.9,5,2.6,1.7,4.2,2.9,4.7,4.8.3,1.1,1.2,1.9,2.2,1.9h22.1c.3-6.9-9.8-10.7-14.5-12.2-5.8-10-13.6-25.5-14-30.2-.8-6.4-1.2-17.7.7-26.1l.3-1.4h1.4c.9,0,1.7.1,2.3.3h.1c.5.1.9.3,1.4.5.5.2,6.5,2.4,11.5,4.1-.1-3.8,0-7.7,1.1-11.5,1.7-5.8,6.1-9.3,11.2-11.9,2.6-1.5,5.5-3.3,8.1-4.8-11.4,12.1-17.5,10-16,29.5.3,3-.2,6.2-.8,9.3-.6,7.2-2.7,12-5.1,21.4-3.3,12.6,13.9,19,23,26.1,9.1,7.1,19.2-.4,21.7-15.7.3-1.7,1.3-19.2,2.2-28.6,3.3,9.2-1.1,36.8,6.7,47.2,8,10.6,36,1.1,36,1.1,4.5-.4,18.9-2.2,14-8.7Z"/>
  </g>
</svg>